# xmcd
#
# Track frame offsets: 
#        150
#        18472
#        36003
#        54727
#        74914
#        88597
#        107589
#        124066
#        138095
#        149839
#        163221
#        179588
#        192859
#        210599
#        229557
#        243496
#        258232
#        273519
#        288558
#        309734
#
# Disc length: 4348 seconds
#
# Revision: 0
# Processed by: cddbd v1.5.2PL0 Copyright (c) Steve Scherf et al.
# Submitted via: ExactAudioCopy v0.99pb4
#
DISCID=3710fa14
DTITLE=Gerard Joling - Goud - CD 1
DYEAR=2010
DGENRE=Pop-Folk
TTITLE0=Ik Leef Mijn Droom
TTITLE1=24 Uur Verliefd
TTITLE2=Liefde Op Het Eerste Gezicht
TTITLE3=Wat Ging Er Mis Tussen Ons
TTITLE4=Maak Me Gek
TTITLE5=Terug Naar De Kust
TTITLE6=Maar Vanavond
TTITLE7=Alsof Je Bij Bent
TTITLE8=Op Zoek Naar De Waarheid
TTITLE9=Love Is In Your Eyes
TTITLE10=Reach
TTITLE11=Numero Uno
TTITLE12=Never Gonna Be The Same
TTITLE13=Cry Baby
TTITLE14=Shangri-La
TTITLE15=Crying
TTITLE16=Tu Solo Tu
TTITLE17=Read My Lips
TTITLE18=Corazon
TTITLE19=Somewhere Over The Rainbow
EXTD=
EXTT0=
EXTT1=
EXTT2=
EXTT3=
EXTT4=
EXTT5=
EXTT6=
EXTT7=
EXTT8=
EXTT9=
EXTT10=
EXTT11=
EXTT12=
EXTT13=
EXTT14=
EXTT15=
EXTT16=
EXTT17=
EXTT18=
EXTT19=
PLAYORDER=
